<?xml version="1.0" encoding="UTF-8"?>
<svg id="Layer_2" data-name="Layer 2" xmlns="http://www.w3.org/2000/svg" viewBox="0 0 217.73 64.85">
  <g id="Layer_1-2" data-name="Layer 1">
    <g>
      <path d="m18.23,28.72c2.23.26,5.77,1.9,10.1,10.49,3.67,7.93,4.79,8.85,6.16,8.85,1.51,0,2.03-.92,2.75-1.44.39-.33.85-.52,1.18-.13.26.33.13.66-.33,1.05-1.25,1.18-3.87,1.97-6.29,1.97-4.52,0-7.15-2.16-10.1-8.33-4.85-9.9-6.29-11.02-9.25-11.02h-.2v15.47c0,1.71.52,2.29,2.69,2.29.98,0,1.57-.13,2.16-.13.39,0,.66.2.66.66s-.33.66-.72.66-1.25-.07-2.1-.07c-1.97-.07-3.93-.2-6.03-.2s-4.06.2-6.03.2c-.92,0-1.64.07-2.16.07-.39,0-.72-.2-.72-.66s.26-.66.72-.66c.66,0,1.18.13,2.16.13,2.16,0,2.69-.59,2.69-2.29V5.97c0-2.03-.59-2.49-2.88-2.49-.66,0-1.38.07-1.77.07-.52,0-.79-.2-.79-.66s.33-.66.79-.66c.52,0,1.25.07,1.84.07,2.56,0,5.97-.59,7.67-1.64.59-.46.98-.66,1.38-.66.46,0,.46.26.46.85v28h.66c3.87,0,5.44-.98,11.15-7.54,3.21-3.61,2.82-4.33.98-4.33-.92,0-1.77.2-2.36.2-.52,0-1.12-.13-1.12-.66s.33-.72,1.38-.72c2.1,0,4.46.33,5.97.33,1.38,0,3.8-.33,5.84-.33.85,0,1.18.2,1.18.66s-.39.72-1.11.72c-.66,0-1.25-.2-2.03-.2-2.43,0-3.67.59-7.74,5.25-4.52,5.31-5.97,6.16-6.82,6.49Z"/>
      <path d="m57.96,45.77c2.56-2.03,4.46-6.56,4.46-15.67v-9.57c0-1.97-.52-2.49-2.75-2.49-.66,0-1.38.07-1.77.07-.46,0-.72-.2-.72-.66,0-.52.39-.66.85-.66.39,0,.98.07,1.77.07,2.43,0,5.77-.59,7.41-1.64.66-.46,1.05-.72,1.44-.72.46,0,.52.26.52.98v27.28c0,3.48,1.05,5.11,3.02,5.11,1.51,0,2.29-.85,2.82-1.31.46-.33.92-.52,1.18-.13.26.33-.07.85-.46,1.18-1.11.92-2.69,1.84-5.83,1.84-4.79,0-7.21-2.49-7.47-8.2-1.57,4.72-5.11,8.13-11.02,8.13s-10.29-3.08-10.29-11.15v-17.7c0-1.97-.52-2.49-2.75-2.49-.66,0-1.38.07-1.77.07-.46,0-.79-.2-.79-.66,0-.52.46-.66.85-.66.46,0,1.05.07,1.84.07,2.36,0,5.83-.59,7.47-1.64.66-.46,1.05-.72,1.44-.72.33,0,.39.26.39.98v24c0,5.18,1.7,7.87,5.77,7.87,1.71,0,3.08-.52,4.39-1.57Z"/>
      <path d="m80.51,16.39c2.69,0,5.38-6.29,5.38-10.36,0-.72.26-1.11.72-1.11s.59.39.59,1.05v10.43h8.46c.72,0,.98.2.98.92,0,.52-.26.79-.92.79h-8.52v21.44c0,6.1,1.44,8.33,4.39,8.33,2.1,0,3.28-.59,4.2-1.44.39-.26.66-.72,1.05-1.18.33-.33.79-.39,1.05-.13.39.26.26.72-.26,1.25-.39.39-.66.59-1.18.92-1.57,1.31-3.41,2.16-6.16,2.16-5.44,0-9.77-2.43-9.77-10.23v-21.11h-4.2c-.72,0-.98-.2-.98-.79,0-.72.26-.92.98-.92h4.2Z"/>
      <path d="m126.54,24.92c0,6.62-4.98,9.77-15.74,9.77h-5.7c.52,10.23,4.26,13.24,10.16,13.24,3.28,0,6.03-.66,8.46-1.7,1.18-.52,1.44-.92,2.16-1.31.66-.26.98-.26,1.18.13.2.39.13.79-.52,1.18-.52.33-.85.39-2.29,1.05-2.75,1.38-5.77,2.23-10.03,2.23-11.08,0-16.33-6.95-16.33-17.24s5.31-17.77,15.74-17.77c8.06,0,12.92,3.67,12.92,10.42Zm-21.51,7.15v1.18h5.64c6.88,0,9.7-2.88,9.7-8.65s-2.43-8.79-6.75-8.79c-5.25,0-8.59,4.59-8.59,16.26Z"/>
      <path d="m145.55,18.1c-2.56,2.1-4.46,6.62-4.46,15.74v11.8c0,1.71.46,2.29,2.56,2.29,1.05,0,1.57-.13,2.03-.13.52,0,.79.2.79.66s-.33.66-.79.66c-.33,0-1.11-.07-2.03-.07-1.9-.07-3.87-.2-5.9-.2s-4,.2-5.97.2c-.85,0-1.64.07-2.1.07-.33,0-.72-.2-.72-.66s.26-.66.72-.66c.59,0,1.11.13,2.1.13,2.1,0,2.62-.59,2.62-2.29v-25.11c0-1.97-.59-2.49-2.82-2.49-.66,0-1.31.07-1.71.07-.52,0-.79-.2-.79-.66s.33-.66.85-.66c.39,0,1.11.07,1.7.07,2.49,0,5.9-.52,7.61-1.64.59-.46.98-.72,1.38-.72s.46.26.46.98v7.34c1.51-4.79,5.11-8.33,11.01-8.33s10.29,3.34,10.29,11.8v16.46c0,3.48,1.12,5.11,3.02,5.11,1.57,0,2.29-.85,2.82-1.31.46-.33.98-.52,1.25-.13.26.33-.07.85-.46,1.18-1.11.92-2.69,1.84-5.83,1.84-5.11,0-7.47-2.75-7.47-9.18v-15.15c0-5.7-1.71-8.59-5.77-8.59-1.64,0-3.02.52-4.39,1.57Z"/>
      <path d="m191.12,64.78c-.92,0-1.77.07-2.1.07-.46,0-.79-.2-.79-.66,0-.39.26-.66.79-.66.46,0,.98.13,2.1.13,2.03,0,2.49-.52,2.49-2.23v-20.06c-.85,2.69-2.16,4.66-3.67,5.84-1.97,1.57-4.39,2.16-6.69,2.16-7.61,0-13.18-4.39-13.18-15.93s5.77-18.95,15.41-18.95c3.74,0,6.03,1.18,8.13,2.49v-1.7c0-.52.2-.79.59-.79.46,0,.72.07,1.18.59,1.44,1.57,5.11,1.64,7.87,1.71.52.07,1.11,0,1.51,0,.52,0,.85.2.85.66s-.26.66-.79.66c-.39,0-1.05-.13-1.9-.13-2.03,0-2.56.46-2.56,2.03v41.44c0,1.7.46,2.23,2.56,2.23.98,0,1.51-.13,2.1-.13.39,0,.72.26.72.66,0,.46-.33.66-.72.66-.46,0-1.25-.07-2.1-.07-1.97-.07-3.87-.2-5.9-.2s-4,.2-5.9.2Zm2.49-32.26v-13.7c-1.44-1.51-4.26-2.75-7.08-2.75-6.75,0-9.44,7.8-9.44,17.31,0,8.52,2.16,14.16,7.67,14.16s8.26-5.38,8.85-15.02Z"/>
      <path d="m214.19,36.59c0,.46-.26.85-.72.85-.52,0-.72-.39-.72-.85,0-15.87-3.93-22.03-3.93-30.1,0-3.41,1.31-4.98,4.39-4.98s4.52,1.57,4.52,4.98c0,8.06-3.54,14.23-3.54,30.1Zm-.85,4.33c2.16,0,4,1.57,4,4.26s-1.97,4.39-4.33,4.39c-2.23,0-4-1.64-4-4.13,0-2.62,2.1-4.52,4.33-4.52Z"/>
    </g>
  </g>
</svg>