<?xml version="1.0" encoding="UTF-8"?>
<svg id="Layer_2" data-name="Layer 2" xmlns="http://www.w3.org/2000/svg" viewBox="0 0 123.54 123.54">
  <defs>
    <style>
      .cls-1 {
        fill: #fff;
      }
    </style>
  </defs>
  <g id="Layer_1-2" data-name="Layer 1">
    <g>
      <rect class="cls-1" width="123.54" height="123.54" rx="45.09" ry="45.09"/>
      <g>
        <path d="m27.8,98.9c-2.11,0-2.42-.6-2.11-2.42l11.17-63.7c.6-3.22-.1-3.92-3.42-3.92-.91,0-1.91.1-2.52.1-.7,0-1.11-.3-1.01-1.01.1-.7.7-1.01,1.41-1.01.81,0,1.71.1,2.52.1,3.62,0,8.55-.81,11.37-2.42,1.01-.7,1.51-1.01,2.01-1.01.6,0,.7.3.5,1.31l-8.25,46.79,22.04-19.32c2.11-1.81,1.71-2.92-.81-2.92-1.31,0-2.52.2-3.42.3-.81,0-1.51-.2-1.41-1.11.2-.6.6-1.01,2.21-1.01,2.82,0,6.34.6,8.55.6,2.01,0,5.33-.6,8.15-.6,1.31,0,1.71.4,1.51,1.01-.1.7-.6,1.11-1.71,1.11-.91,0-1.81-.3-2.92-.3-2.62,0-5.03.91-8.15,3.72l-13.28,11.57,8.05,21.84c3.52,9.66,4.93,10.97,7.65,10.97,2.11,0,3.32-1.11,4.33-1.91.7-.5,1.31-.7,1.71-.2.3.4.1,1.11-.7,1.71-2.01,1.61-6.34,2.72-9.96,2.72-5.94,0-9.26-1.31-13.08-12.28l-5.84-16-3.42,3.02-3.82,21.84c-.3,1.81-.7,2.42-2.92,2.42h-4.43Z"/>
        <path d="m81.94,87.13c3.12,0,5.33,2.31,4.63,6.14-.6,3.82-3.92,6.34-7.35,6.34-3.02,0-5.23-2.21-4.63-5.84.7-3.82,4.23-6.64,7.35-6.64Zm2.42-7.04c-.1.7-.5,1.31-1.21,1.31s-.91-.5-.81-1.31c4.93-27.57.91-36.53,2.82-46.89.81-5.03,3.02-7.25,7.35-7.25,4.63,0,6.04,2.21,5.23,7.25-1.91,10.37-8.45,19.32-13.38,46.89Z"/>
      </g>
    </g>
  </g>
</svg>