<?xml version="1.0" encoding="UTF-8"?>
<svg id="Layer_2" data-name="Layer 2" xmlns="http://www.w3.org/2000/svg" viewBox="0 0 272.5 76.95">
  <g id="Layer_1-2" data-name="Layer 1">
    <g>
      <path d="m18.59,74.7c.02-.14,3.04-24.28,3.07-24.42l.07-.39c-2.29,4.65-6.36,8.2-11.93,8.2s-9.18-3.28-7.8-11.15L8.07,6.75c.39-2.56.33-4.33-.92-4.33-1.9,0-4.33,3.67-5.83,8.39-.33,1.05-1.64.85-1.25-.2C1.97,4.66,5.38,0,9.84,0c3.02,0,5.25,2.1,4.26,7.8l-6.02,40.11c-.98,5.31.2,8.13,4.07,8.13,1.64,0,3.08-.52,4.52-1.57,2.88-2.1,5.44-6.62,7.02-15.47l2.36-13.64c.26-1.18.59-1.57,1.97-1.57h2.88c1.38,0,1.57.39,1.31,1.57l-7.52,49.96"/>
      <g>
        <path d="m34.7,57.71c-1.31,0-1.57-.39-1.38-1.57l3.54-20.06h-.07l1.12-6.29c.39-2.56.39-4.33-.92-4.33-1.84,0-4.33,3.67-5.84,8.39-.33,1.05-1.64.85-1.25-.2,1.9-5.97,5.38-10.62,9.83-10.62,2.95,0,5.18,2.1,4.2,7.8l-.13.79c2.29-4.79,6.23-8.46,11.93-8.46s9.25,3.21,7.8,11.15l-2.95,17.05c-.46,2.56-.39,4.33.85,4.33,1.9,0,4.64.15,6.15-4.57.33-1.11,2.1.02,1.77,1.07-1.97,5.97-6.15,5.99-10.6,5.99-3.02,0-5.25-2.16-4.26-7.87l3.02-17.05c.92-5.25-.13-8.13-4.07-8.13-1.64,0-2.88.72-4.33,1.77-2.82,2.1-5.57,6.43-7.15,15.34l-2.43,13.9c-.2,1.18-.52,1.57-1.9,1.57h-2.95Z"/>
        <path d="m79.12,22.75c.85,0,1.57-.13,1.97-.13s.72.2.66.66c-.13.46-.39.66-.85.66-.52,0-.98-.13-1.97-.13-1.77,0-2.43.46-2.69,1.77l-4.41,30.83h6.29c10.82,0,14.36-4.06,15.6-8.59.39-1.38.46-1.9.59-2.62.13-.66.46-1.05.92-1.05.39,0,.52.39.39,1.11-.07.52-.39,1.31-.79,2.82l-2.1,8c-.33,1.25-.66,1.64-2.1,1.64h-24.39c-2.36.07-4.26.26-5.57.26-.46,0-.72-.13-.59-.66.07-.46.33-.66.79-.66.39,0,.98.13,1.9.13,1.97,0,2.49-.52,2.82-2.23l3.95-28.54c.33-1.7-.07-2.23-2.03-2.23-.92,0-1.44.13-1.97.13-.39,0-.66-.2-.52-.66.07-.46.33-.66.72-.66s1.18.13,1.97.13c1.84,0,3.8.13,5.7.13s3.93-.13,5.7-.13Z"/>
      </g>
      <g>
        <path d="m117.62,50.3l.07-.39c-2.29,4.65-6.36,8.2-11.93,8.2s-9.18-3.28-7.8-11.15l3.08-17.18c.39-2.56.33-4.33-.92-4.33-1.9,0-4.33,3.67-5.83,8.39-.33,1.05-1.64.85-1.25-.2,1.9-5.97,5.31-10.62,9.77-10.62,3.02,0,5.25,2.1,4.26,7.8l-3.02,17.11c-.98,5.31.2,8.13,4.07,8.13,1.64,0,3.08-.52,4.52-1.57,2.88-2.1,5.44-6.62,7.02-15.47l2.36-13.64c.26-1.18.59-1.57,1.97-1.57h2.88c1.38,0,1.57.39,1.31,1.57l-4.52,25.96"/>
        <path d="m126.9,32.45c2.29-4.79,6.23-8.46,11.93-8.46s9.25,3.21,7.8,11.15l-2.95,17.05c-.46,2.56-.39,4.33.85,4.33,1.9,0,4.33-3.61,5.84-8.33.33-1.11,1.64-.92,1.31.13-1.97,5.97-5.38,10.69-9.84,10.69-3.02,0-5.25-2.16-4.26-7.87l3.02-17.05c.92-5.25-.13-8.13-4.07-8.13-1.64,0-2.88.72-4.33,1.77-2.82,2.1-5.57,6.43-7.15,15.34l-2.43,13.9c-.2,1.18-.52,1.57-1.9,1.57h-2.95c-1.31,0-1.57-.39-1.38-1.57l3.54-20.06"/>
      </g>
      <path d="m166.05,8.17l-6.42,40.61c-.98,5.31.2,8.13,4.07,8.13,1.64,0,3.08-.52,4.52-1.57,2.88-2.1,5.44-6.62,7.02-15.47l.45-3.47c.26-1.18.59-1.57,1.97-1.57h2.88c1.38,0,1.57.39,1.31,1.57l-2.61,15.8c-.46,2.56-.39,4.33.92,4.33,1.84,0,4.26-3.61,5.77-8.33.33-1.11,1.64-.92,1.31.13-1.9,5.97-5.38,10.69-9.83,10.69-3.02,0-5.18-2.16-4.2-7.87l.07-.39c-2.29,4.65-6.36,8.2-11.93,8.2s-9.18-3.28-7.8-11.15l6.57-39.92"/>
      <path d="m159.44,11.64l.45-3.47c.26-1.18.59-1.57,1.97-1.57h2.88c1.38,0,1.57.39,1.31,1.57"/>
      <rect x="158.18" y="25.84" width="24.12" height="1.81"/>
      <g>
        <path d="m201.7,8.17l-6.33,39.47c-.98,5.31.2,8.13,4.07,8.13,1.64,0,3.08-.52,4.52-1.57,2.88-2.1,5.44-6.62,7.02-15.47l2.36-13.64c.26-1.18.59-1.57,1.97-1.57h2.88c1.38,0,1.57.39,1.31,1.57l-4.52,25.96c-.46,2.56-.39,4.33.92,4.33,1.84,0,4.26-3.61,5.77-8.33.33-1.11,1.64-.92,1.31.13-1.9,5.97-5.38,10.69-9.83,10.69-3.02,0-5.18-2.16-4.2-7.87l.07-.39c-2.29,4.65-6.36,8.2-11.93,8.2s-9.18-3.28-7.8-11.15l6.35-37.79"/>
        <path d="m195.09,11.64l.45-3.47c.26-1.18.59-1.57,1.97-1.57h2.88c1.38,0,1.57.39,1.31,1.57"/>
        <rect x="176.92" y="6.59" width="24.12" height="1.81"/>
      </g>
      <g>
        <path d="m218.59,73.45c-.92,0-1.64.13-2.03.13-.33,0-.66-.2-.52-.66.07-.39.33-.66.72-.66.52,0,.98.13,2.03.13,1.97,0,2.49-.52,2.82-2.23l7.15-40.39c.39-2.56.33-4.33-.98-4.33-1.84,0-4.33,3.67-5.77,8.39-.33,1.05-1.64.85-1.25-.2,1.9-5.97,5.31-10.62,9.77-10.62,3.02,0,5.18,2.1,4.2,7.8l-.26,1.57c3.02-6.82,6.95-9.11,11.93-9.11,7.47,0,11.15,5.57,8.98,17.9-2.1,11.8-8.13,17.38-17.31,17.38-3.08,0-5.7-.85-7.93-1.97l-2.36,13.57c-.33,1.71.07,2.23,2.03,2.23.98,0,1.51-.13,2.03-.13.39,0,.66.26.59.66-.13.46-.39.66-.79.66-.46,0-1.18-.13-2.03-.13-1.77,0-3.54-.13-5.44-.13s-3.8.13-5.57.13Zm14.36-32.52l-2.49,13.83c1.31,1.18,4.06,2.29,6.95,2.29,6.56,0,9.64-5.9,11.54-16.79,1.57-8.72,1.38-15.28-4.26-15.28-5.18,0-9.7,6.16-11.74,15.93Z"/>
        <rect x="217.96" y="60.9" width="33" height="1.81"/>
      </g>
      <path d="m25.93,59.62l-1.32,13.92c-.33,1.71.07,2.23,2.03,2.23.98,0,1.51-.13,2.03-.13.39,0,.66.26.59.66-.13.46-.39.66-.79.66-.46,0-1.18-.13-2.03-.13-1.77,0-3.54-.13-5.44-.13s-3.8.13-5.57.13c-.92,0-1.64.13-2.03.13-.33,0-.66-.2-.52-.66.07-.39.33-.66.72-.66.52,0,.98.13,2.03.13,1.97,0,2.49-.52,2.82-2.23l7.15-40.39"/>
      <path d="m262.06,50.34c2.03,0,3.48,1.51,3.02,4-.39,2.49-2.56,4.13-4.79,4.13-1.97,0-3.41-1.44-3.02-3.8.46-2.49,2.75-4.33,4.79-4.33Zm1.57-4.59c-.07.46-.33.85-.79.85s-.59-.33-.52-.85c3.21-17.97.59-23.8,1.84-30.55.52-3.28,1.97-4.72,4.79-4.72,3.02,0,3.93,1.44,3.41,4.72-1.25,6.75-5.51,12.59-8.72,30.55Z"/>
    </g>
  </g>
</svg>