<?xml version="1.0" encoding="UTF-8"?>
<svg id="Layer_2" data-name="Layer 2" xmlns="http://www.w3.org/2000/svg" viewBox="0 0 123.54 123.54">
  <defs>
    <style>
      .cls-1 {
        fill: #fff;
      }
    </style>
  </defs>
  <g id="Layer_1-2" data-name="Layer 1">
    <g>
      <rect class="cls-1" x="0" width="123.54" height="123.54" rx="45.09" ry="45.09"/>
      <g>
        <path d="m52.94,67.56c3.28.39,8.49,2.8,14.86,15.44,5.4,11.68,7.04,13.03,9.07,13.03,2.22,0,2.99-1.35,4.05-2.12.58-.48,1.25-.77,1.74-.19.39.48.19.96-.48,1.54-1.83,1.74-5.69,2.89-9.26,2.89-6.66,0-10.52-3.18-14.86-12.25-7.14-14.57-9.26-16.21-13.61-16.21h-.29v22.77c0,2.51.77,3.38,3.96,3.38,1.45,0,2.32-.19,3.18-.19.58,0,.97.29.97.96s-.48.97-1.06.97-1.83-.1-3.09-.1c-2.9-.1-5.79-.29-8.88-.29s-5.98.29-8.88.29c-1.35,0-2.41.1-3.18.1-.58,0-1.06-.29-1.06-.97s.39-.96,1.06-.96c.96,0,1.74.19,3.18.19,3.18,0,3.96-.87,3.96-3.38v-58.38c0-2.99-.87-3.67-4.25-3.67-.96,0-2.03.1-2.61.1-.77,0-1.16-.29-1.16-.96s.48-.96,1.16-.96c.77,0,1.83.1,2.7.1,3.76,0,8.78-.87,11.29-2.41.87-.68,1.45-.97,2.03-.97.68,0,.68.39.68,1.25v41.2h.96c5.69,0,8.01-1.45,16.4-11.1,4.73-5.31,4.15-6.37,1.45-6.37-1.35,0-2.61.29-3.47.29-.77,0-1.64-.19-1.64-.96s.48-1.06,2.03-1.06c3.09,0,6.56.48,8.78.48,2.03,0,5.6-.48,8.59-.48,1.25,0,1.74.29,1.74.96s-.58,1.06-1.64,1.06c-.96,0-1.83-.29-2.99-.29-3.57,0-5.4.87-11.39,7.72-6.66,7.82-8.78,9.07-10.04,9.55Z"/>
        <path d="m92.22,79.14c0,.68-.39,1.25-1.06,1.25-.77,0-1.06-.58-1.06-1.25,0-23.35-5.79-32.42-5.79-44.29,0-5.02,1.93-7.33,6.47-7.33s6.66,2.32,6.66,7.33c0,11.87-5.21,20.94-5.21,44.29Zm-1.25,6.37c3.18,0,5.89,2.32,5.89,6.27s-2.9,6.47-6.37,6.47c-3.28,0-5.89-2.41-5.89-6.08,0-3.86,3.09-6.66,6.37-6.66Z"/>
      </g>
    </g>
  </g>
</svg>