<?xml version="1.0" encoding="UTF-8"?>
<svg id="Layer_2" data-name="Layer 2" xmlns="http://www.w3.org/2000/svg" viewBox="0 0 282.33 87.95">
  <g id="Layer_1-2" data-name="Layer 1">
    <g>
      <path d="m22.16,61.28c2.56-2.03,4.46-6.56,4.46-15.67v-9.57c0-1.97-.52-2.49-2.75-2.49-.66,0-1.38.07-1.77.07-.46,0-.72-.2-.72-.66,0-.52.39-.66.85-.66.39,0,.98.07,1.77.07,2.43,0,5.77-.59,7.41-1.64.66-.46,1.05-.72,1.44-.72.46,0,.52.26.52.98v50.28c0,3.48,1.05,5.11,3.02,5.11,1.51,0,2.29-.85,2.82-1.31.46-.33.92-.52,1.18-.13.26.33-.07.85-.46,1.18-1.11.92-2.69,1.84-5.83,1.84-2.1,0-3.74-.48-4.95-1.5-1.9-1.6-2.24-4.15-2.42-5.36-.08-.55-.1-24.01-.11-24.34-.27.95-1.34,4.22-4.64,6.38-1.7,1.11-3.82,1.75-6.38,1.75-5.97,0-10.29-3.08-10.29-11.15V6.03c0-1.97-.52-2.49-2.75-2.49-.66,0-1.38.07-1.77.07-.46,0-.79-.2-.79-.66,0-.52.46-.66.85-.66.46,0,1.05.07,1.84.07,2.36,0,5.83-.59,7.47-1.64.66-.46,1.05-.72,1.44-.72.33,0,.39.26.39.98v54c0,5.18,1.7,7.87,5.77,7.87,1.71,0,3.08-.52,4.39-1.57Z"/>
      <path d="m54.97,33.61c-2.56,2.1-4.46,6.62-4.46,15.74v11.8c0,1.71.46,2.29,2.56,2.29,1.05,0,1.57-.13,2.03-.13.52,0,.79.2.79.66s-.33.66-.79.66c-.33,0-1.11-.07-2.03-.07-1.9-.07-3.87-.2-5.9-.2s-4,.2-5.97.2c-.85,0-1.64.07-2.1.07-.33,0-.72-.2-.72-.66s.26-.66.72-.66c.59,0,1.11.13,2.1.13,2.1,0,2.62-.59,2.62-2.29v-25.11c0-1.97-.59-2.49-2.82-2.49-.66,0-1.31.07-1.71.07-.52,0-.79-.2-.79-.66s.33-.66.85-.66c.39,0,1.11.07,1.7.07,2.49,0,5.9-.52,7.61-1.64.59-.46.98-.72,1.38-.72s.46.26.46.98v7.34c1.51-4.79,5.11-8.33,11.01-8.33s10.29,3.34,10.29,11.8v16.46c0,3.48,1.12,5.11,3.02,5.11,1.57,0,2.29-.85,2.82-1.31.46-.33.98-.52,1.25-.13.26.33-.07.85-.46,1.18-1.11.92-2.69,1.84-5.83,1.84-5.11,0-7.47-2.75-7.47-9.18v-15.15c0-5.7-1.71-8.59-5.77-8.59-1.64,0-3.02.52-4.39,1.57Z"/>
      <path d="m73.18,64.82c-.46,0-.79-.2-.79-.72,0-.46.26-.59.79-.59.39,0,1.05.07,2.03.07,2.1,0,2.56-.52,2.56-2.23v-27.41c0-1.7-.46-2.29-2.56-2.29-.98,0-.57.13-1.1.13-.39,0-.72-.2-.72-.66s.33-.66.72-.66.25.07,1.1.07c1.97.07,4.07.2,6.1.2s4.2-.2,6.1-.2c.92,0,.71-.07,1.03-.07.46,0,.79.2.79.66s-.26.66-.79.66c-.46,0,.02-.13-1.03-.13-1.9,0-2.49.46-2.56,1.84v29.77h6.42c11.47,0,11.56-4.26,12.02-8.72.13-1.38.13-1.9.13-2.62,0-.66.26-1.05.72-1.05s.66.39.66,1.05c0,.59-.2,1.38-.33,2.88l-.79,8.13c-.07,1.18-.33,1.64-1.83,1.64h-21.98c-2.82,0-5.11.26-6.69.26Z"/>
      <g>
        <path d="m128.13,57.75c-1.57,4.72-5.11,8.13-11.02,8.13s-10.29-3.08-10.29-11.15v-17.7c0-1.97-.52-2.49-2.75-2.49-.66,0-1.38.07-1.77.07-.46,0-.79-.2-.79-.66,0-.52.46-.66.85-.66.46,0,1.05.07,1.84.07,2.36,0,5.83-.59,7.47-1.64.66-.46,1.05-.72,1.44-.72.33,0,.39.26.39.98v24c0,5.18,1.7,7.87,5.77,7.87,1.71,0,3.08-.52,4.39-1.57,2.56-2.03,4.46-6.56,4.46-15.67v-9.57c0-1.97-.52-2.49-2.75-2.49-.66,0-1.38.07-1.77.07-.46,0-.72-.2-.72-.66,0-.52.39-.66.85-.66.39,0,.98.07,1.77.07,2.43,0,5.77-.59,7.41-1.64.66-.46,1.05-.72,1.44-.72.46,0,.52.26.52.98l-.78,27.16"/>
        <path d="m139.15,34.57c-2.56,2.1-4.46,6.62-4.46,15.74v11.8c0,1.71-.54,2.29,1.56,2.29,1.05,0,.57-.13,1.03-.13.52,0,.79.2.79.66s-.33.66-.79.66c-.33,0-.11-.07-1.03-.07-1.9-.07-2.87-.2-4.9-.2s-3,.2-4.97.2c-.85,0-.64.07-1.1.07-.33,0-.72-.2-.72-.66s.26-.66.72-.66c.59,0,.11.13,1.1.13,2.1,0,1.62-.59,1.62-2.29v-25.11c0-1.97-.59-2.49-2.82-2.49-.66,0-1.31.07-1.71.07-.52,0-.79-.2-.79-.66s.33-.66.85-.66c.39,0,1.11.07,1.7.07,2.49,0,5.9-.52,7.61-1.64.59-.46.98-.72,1.38-.72s.46.26.46.98v7.34c1.51-4.79,5.11-8.33,11.01-8.33s10.29,3.34,10.29,11.8v16.46c0,3.48,1.12,5.11,3.02,5.11,1.57,0,2.29-.85,2.82-1.31.46-.33.98-.52,1.25-.13.26.33-.07.85-.46,1.18-1.11.92-2.69,1.84-5.83,1.84-5.11,0-7.47-2.75-7.47-9.18v-15.15c0-5.7-1.71-8.59-5.77-8.59-1.64,0-3.02.52-4.39,1.57Z"/>
      </g>
      <g>
        <path d="m184.22,44.43c.58-.28,1.46-.3,2.42-.71.52-.22.93-.43,1.73-1,.66-.46,1.05-.72,1.44-.72.46,0,.52.26.52.98v15.28c0,3.48,1.05,5.11,3.02,5.11,1.51,0,2.29-.85,2.82-1.31.46-.33.92-.52,1.18-.13.26.33-.07.85-.46,1.18-1.11.92-2.69,1.84-5.83,1.84-4.79,0-7.21-2.49-7.47-8.2-1.57,4.72-5.11,8.13-11.02,8.13s-10.29-3.08-10.29-11.15V12.03c0-1.97-.52-2.49-2.75-2.49-.66,0-1.38.07-1.77.07-.46,0-.79-.2-.79-.66,0-.52.46-.66.85-.66.46,0,1.05.07,1.84.07,2.36,0,5.83-.59,7.47-1.64.66-.46,1.05-.72,1.44-.72.33,0,.39.26.39.98v48c0,5.18,1.7,7.87,5.77,7.87,1.71,0,3.08-.52,4.39-1.57,2.56-2.03,3.56-3.2,4.46-11.98v-1.27c-.07-2.62.05-3.32.64-3.6Z"/>
        <rect x="165.15" y="28.15" width="24.12" height="1.81"/>
      </g>
      <g>
        <path d="m215.19,61.28c2.56-2.03,4.46-6.56,4.46-15.67v-9.57c0-1.97-.52-2.49-2.75-2.49-.66,0-1.38.07-1.77.07-.46,0-.72-.2-.72-.66,0-.52.39-.66.85-.66.39,0,.98.07,1.77.07,2.43,0,5.77-.59,7.41-1.64.66-.46,1.05-.72,1.44-.72.46,0,.52.26.52.98v27.28c0,3.48,1.05,5.11,3.02,5.11,1.51,0,2.29-.85,2.82-1.31.46-.33.92-.52,1.18-.13.26.33-.07.85-.46,1.18-1.11.92-2.69,1.84-5.83,1.84-4.79,0-7.21-2.49-7.47-8.2-1.57,4.72-5.11,8.13-11.02,8.13s-10.29-3.08-10.29-11.15V13.03c0-1.97-.52-2.49-2.75-2.49-.66,0-1.38.07-1.77.07-.46,0-.79-.2-.79-.66,0-.52.46-.66.85-.66.46,0,1.05.07,1.84.07,2.36,0,5.83-.59,7.47-1.64.66-.46,1.05-.72,1.44-.72.33,0,.39.26.39.98v47c0,5.18,1.7,7.87,5.77,7.87,1.71,0,3.08-.52,4.39-1.57Z"/>
        <rect x="179.97" y="9.05" width="24.12" height="1.81"/>
      </g>
      <g>
        <path d="m233.58,80.36c-.92,0-1.7.07-2.1.07s-.72-.2-.72-.66.26-.66.72-.66c.52,0,1.05.13,2.1.13,2.1,0,2.56-.59,2.56-2.29v-40.91c0-1.97-.59-2.49-2.75-2.49-.66,0-1.31.07-1.77.07s-.72-.2-.72-.66.33-.66.79-.66c.52,0,1.18.07,1.71.07,2.56,0,5.9-.59,7.61-1.64.66-.46,1.05-.72,1.38-.72.46,0,.52.26.52.98v8.2c1.97-6.82,5.77-9.18,10.88-9.18,7.74,0,12.59,5.31,12.59,17.05,0,12.52-5.18,18.36-14.82,18.36-3.21,0-6.16-.79-8.66-1.9v13.44c0,1.7.46,2.29,2.56,2.29.98,0,1.51-.13,2.1-.13.46,0,.72.2.72.66s-.33.66-.72.66c-.46,0-1.25-.07-2.1-.07-1.9-.07-3.87-.2-5.9-.2s-4.07.2-5.97.2Zm9.31-32.52v13.83c1.57,1.11,4.66,2.23,7.61,2.23,6.82,0,8.92-5.77,8.92-16.79,0-8.85-1.31-15.34-7.21-15.34-5.38,0-8.98,6.49-9.31,16.06Z"/>
        <rect x="228.41" y="69.07" width="35" height="1.81"/>
      </g>
      <path d="m278.79,52.98c0,.46-.26.85-.72.85-.52,0-.72-.39-.72-.85,0-15.87-3.93-22.03-3.93-30.1,0-3.41,1.31-4.98,4.39-4.98s4.52,1.57,4.52,4.98c0,8.06-3.54,14.23-3.54,30.1Zm-.85,4.33c2.16,0,4,1.57,4,4.26s-1.97,4.39-4.33,4.39c-2.23,0-4-1.64-4-4.13,0-2.62,2.1-4.52,4.33-4.52Z"/>
    </g>
  </g>
</svg>