<?xml version="1.0" encoding="UTF-8"?>
<svg id="Layer_2" data-name="Layer 2" xmlns="http://www.w3.org/2000/svg" viewBox="0 0 211.45 64.91">
  <g id="Layer_1-2" data-name="Layer 1">
    <g>
      <path d="m1.44,49.04c-1.38,0-1.57-.39-1.38-1.57L7.34,5.97c.39-2.1-.07-2.56-2.23-2.56-.59,0-1.25.07-1.64.07-.46,0-.72-.2-.66-.66s.46-.66.92-.66c.52,0,1.12.07,1.64.07,2.36,0,5.57-.52,7.41-1.57.66-.46.98-.66,1.31-.66.39,0,.46.2.33.85l-5.38,30.49,14.36-12.59c1.38-1.18,1.11-1.9-.53-1.9-.85,0-1.64.13-2.23.2-.53,0-.98-.13-.92-.72.13-.39.39-.66,1.44-.66,1.84,0,4.13.39,5.57.39,1.31,0,3.47-.39,5.31-.39.85,0,1.11.26.98.66-.07.46-.39.72-1.11.72-.59,0-1.18-.2-1.9-.2-1.71,0-3.28.59-5.31,2.43l-8.65,7.54,5.25,14.23c2.29,6.29,3.21,7.15,4.98,7.15,1.38,0,2.16-.72,2.82-1.25.46-.33.85-.46,1.11-.13.2.26.07.72-.46,1.11-1.31,1.05-4.13,1.77-6.49,1.77-3.87,0-6.03-.85-8.52-8l-3.8-10.42-2.23,1.97-2.49,14.23c-.2,1.18-.46,1.57-1.9,1.57H1.44Z"/>
      <path d="m51.07,45.83c2.88-2.1,5.44-6.62,7.02-15.47l2.36-13.64c.26-1.18.59-1.57,1.97-1.57h2.88c1.38,0,1.57.39,1.31,1.57l-4.52,25.96c-.46,2.56-.39,4.33.92,4.33,1.84,0,4.26-3.61,5.77-8.33.33-1.11,1.64-.92,1.31.13-1.9,5.97-5.38,10.69-9.83,10.69-3.02,0-5.18-2.16-4.2-7.87l.07-.39c-2.29,4.65-6.36,8.2-11.93,8.2s-9.18-3.28-7.8-11.15l3.08-17.18c.39-2.56.33-4.33-.92-4.33-1.9,0-4.33,3.67-5.83,8.39-.33,1.05-1.64.85-1.25-.2,1.9-5.97,5.31-10.62,9.77-10.62,3.02,0,5.25,2.1,4.26,7.8l-3.02,17.11c-.98,5.31.2,8.13,4.07,8.13,1.64,0,3.08-.52,4.52-1.57Z"/>
      <path d="m78.54,15.8c2.49,0,5.9-5.9,6.56-9.64.13-.72.39-1.05.92-1.05.46,0,.52.33.39,1.05l-1.71,9.64h8.2c.39,0,.52.2.46.52l-.07.46c-.07.46-.33.66-.72.66h-8.2l-3.87,22.16c-1.05,6.03-.07,8.33,2.88,8.33,2.1,0,3.34-.59,4.39-1.44.39-.26.72-.66,1.25-1.11.39-.33.79-.39,1.05-.13.26.26.13.72-.46,1.25-.46.39-.79.59-1.31.92-1.71,1.25-3.74,2.03-6.36,2.03-5.31,0-8.92-2.56-7.47-10.49l3.74-21.51h-4.13c-.59,0-.59-.2-.46-.79v-.13c.07-.46.26-.72.79-.72h4.13Z"/>
      <path d="m120.64,25.24c-1.18,6.43-6.49,9.44-16.65,9.44h-5.57c-1.31,10.23,1.77,13.24,7.41,13.24,3.15,0,5.9-.66,8.52-1.7,1.05-.46,1.38-.85,2.1-1.25.66-.26.98-.26,1.12.13.13.39,0,.79-.72,1.18-.52.26-.79.33-2.36,1.05-2.82,1.31-5.84,2.23-9.83,2.23-10.49,0-14.29-7.34-12.39-18.29,1.77-9.9,8.13-16.79,17.97-16.79,7.61,0,11.61,3.87,10.42,10.75Zm-21.83,6.88l-.2,1.18h5.57c6.56,0,9.77-2.95,10.75-8.72,1.05-5.7-.72-8.79-4.92-8.79-5.05,0-9.18,4.72-11.21,16.33Z"/>
      <path d="m126.34,49.04c-1.31,0-1.57-.39-1.38-1.57l3.54-20.06h-.07l1.12-6.29c.39-2.56.39-4.33-.92-4.33-1.84,0-4.33,3.67-5.84,8.39-.33,1.05-1.64.85-1.25-.2,1.9-5.97,5.38-10.62,9.83-10.62,2.95,0,5.18,2.1,4.2,7.8l-.13.79c2.29-4.79,6.23-8.46,11.93-8.46s9.25,3.21,7.8,11.15l-2.95,17.05c-.46,2.56-.39,4.33.85,4.33,1.9,0,4.33-3.61,5.84-8.33.33-1.11,1.64-.92,1.31.13-1.97,5.97-5.38,10.69-9.84,10.69-3.02,0-5.25-2.16-4.26-7.87l3.02-17.05c.92-5.25-.13-8.13-4.07-8.13-1.64,0-2.88.72-4.33,1.77-2.82,2.1-5.57,6.43-7.15,15.34l-2.43,13.9c-.2,1.18-.52,1.57-1.9,1.57h-2.95Z"/>
      <path d="m176.04,64.78c-.92,0-1.64.13-2.03.13s-.66-.2-.53-.66c.07-.46.26-.66.72-.66.52,0,.98.13,2.03.13,1.97,0,2.49-.59,2.75-2.29l3.54-20c-1.25,2.62-2.82,4.52-4.52,5.77-2.16,1.57-4.52,2.16-6.69,2.16-7.28,0-11.8-4.79-9.7-16.85,1.9-10.88,8.72-18.03,17.9-18.03,3.61,0,5.57,1.18,7.34,2.56l.26-1.77c.13-.59.39-.79.72-.79.39,0,.66.07,1.05.59,1.05,1.57,4.52,1.51,7.02,1.57h1.51c.46,0,.72.13.66.59s-.39.66-.85.66c-.39,0-1.05-.07-1.84-.07-1.97,0-2.56.52-2.82,2.1l-7.34,41.5c-.26,1.7.07,2.29,2.1,2.29.92,0,1.44-.13,1.97-.13.39,0,.66.2.59.66-.13.46-.39.66-.79.66s-1.11-.13-1.97-.13c-1.84,0-3.61-.13-5.51-.13s-3.8.13-5.57.13Zm8.06-32.26l2.43-13.7c-1.11-1.51-3.61-2.82-6.29-2.82-6.56,0-10.49,8-12.2,17.44-1.44,8.39-.46,14.16,4.85,14.16s8.98-5.31,11.21-15.08Z"/>
      <path d="m201.01,41.37c2.03,0,3.48,1.51,3.02,4-.39,2.49-2.56,4.13-4.79,4.13-1.97,0-3.41-1.44-3.02-3.8.46-2.49,2.75-4.33,4.79-4.33Zm1.57-4.59c-.07.46-.33.85-.79.85s-.59-.33-.52-.85c3.21-17.97.59-23.8,1.84-30.55.52-3.28,1.97-4.72,4.79-4.72,3.02,0,3.93,1.44,3.41,4.72-1.25,6.75-5.51,12.59-8.72,30.55Z"/>
    </g>
  </g>
</svg>