<?xml version="1.0" standalone="no"?>
<!DOCTYPE svg PUBLIC "-//W3C//DTD SVG 20010904//EN"
 "http://www.w3.org/TR/2001/REC-SVG-20010904/DTD/svg10.dtd">
<svg version="1.0" xmlns="http://www.w3.org/2000/svg"
 width="700.000000pt" height="700.000000pt" viewBox="0 0 700.000000 700.000000"
 preserveAspectRatio="xMidYMid meet">
<metadata>
Created by potrace 1.14, written by Peter Selinger 2001-2017
</metadata>
<g transform="translate(0.000000,700.000000) scale(0.100000,-0.100000)"
fill="#000000" stroke="none">
<path d="M2607 5634 c-152 -103 -422 -164 -727 -164 l-149 0 -20 -27 c-22 -27
-20 -60 3 -75 6 -4 74 -8 151 -8 203 0 241 -24 231 -145 -3 -33 -149 -882
-326 -1887 -176 -1005 -320 -1840 -320 -1857 0 -20 8 -36 26 -50 25 -20 40
-21 226 -21 231 0 247 4 272 72 9 24 63 318 121 653 58 336 109 619 113 631 9
26 189 188 196 176 3 -5 84 -225 180 -489 203 -557 222 -605 277 -716 85 -168
190 -286 296 -334 191 -85 545 -64 788 46 111 50 163 119 123 159 -19 19 -31
15 -118 -43 -133 -88 -232 -105 -329 -55 -71 36 -143 151 -236 378 -105 258
-536 1448 -528 1458 14 20 784 687 843 731 144 107 270 142 441 122 102 -12
138 -9 163 17 23 22 20 71 -3 84 -27 14 -120 12 -286 -5 -182 -19 -300 -19
-504 1 -268 26 -341 13 -341 -57 0 -47 26 -53 161 -39 120 12 167 9 207 -16
27 -18 28 -47 2 -84 -11 -16 -309 -281 -662 -591 -588 -515 -641 -559 -635
-528 3 19 109 625 237 1347 127 722 229 1320 226 1328 -9 22 -58 16 -99 -12z"/>
<path d="M5133 5519 c-209 -41 -304 -218 -332 -619 -8 -102 -7 -239 0 -460 12
-335 7 -821 -11 -1035 -18 -214 -59 -547 -95 -764 -37 -226 -36 -251 13 -251
52 0 60 22 117 307 126 628 231 996 481 1685 80 219 160 453 179 520 115 399
78 573 -133 617 -60 13 -157 13 -219 0z"/>
<path d="M4517 2036 c-145 -61 -244 -173 -283 -321 -39 -146 17 -283 138 -335
73 -32 197 -26 282 13 168 77 266 239 254 419 -10 156 -95 238 -253 245 -68 3
-89 0 -138 -21z"/>
</g>
</svg>
